<svg version="1" xmlns="http://www.w3.org/2000/svg" width="346.667" height="346.667" viewBox="0 0 260.000000 260.000000"><path d="M157.8 50.5c-.1.2-2.8.5-5.8.6-23.7 1.3-45.7 18.8-53.4 42.5-3.4 10.3-4.1 15.9-4 31.4.1 15.5 2.2 25.7 7.8 37.7 6.5 13.6 18.8 24.7 33.1 29.8 24.1 8.5 49.5 2.8 64-14.5 1.9-2.3 3.5-3.6 3.6-2.8 0 .7.2 2 .3 2.8.2.8.6 4.4 1 8 .4 3.5.9 6.6 1 6.8.6.6 10.9.9 12.8.4 1.7-.4 1.8-2.4 1.8-35.8 0-19.5-.3-35.5-.7-35.5-4.2-.7-58.1-.3-59 .4-.8.5-1.3 3.2-1.3 6.3 0 3.1.5 5.6 1.3 6.1.6.4 10.2.8 21.2.8h20l.1 5c.2 25.6-24.4 45.7-50.6 41.1-7-1.2-8.1-1.5-13-4.2-11.2-6.1-19.8-17.7-23.6-31.9-3.4-12.6-2.3-38.2 2.1-50.5 4-11.2 12.9-21.2 23-26 17.9-8.4 42.6-4.4 54.3 8.9 2.3 2.7 7.2 12.2 7.2 14 0 1.3-.1 1.3 8.3 1.5 3.7.1 7.3-.1 7.9-.5 1.8-1.2-2-12.7-6.2-18.9-9.4-13.6-20.2-19.7-40-22.5-5.9-.8-12.8-1.4-13.2-1zM45 53.8c-.7.3-1 24.3-1 69.8 0 65.4.1 69.4 1.8 69.5 4.9.4 13.9.4 15 .1 1.8-.6 1.8-139.1 0-139.3-2.8-.4-14.9-.4-15.8-.1z"/></svg>